:FULLY-SPECIFIED
:DEGREES
94
root -14.289401054382324 17.345699310302734 17.331600189208984 90.00000933466734 -0.0 -0.0
lhipjoint -5.528973971617621e-07 -1.7075472925031877e-06 5.635377011264426e-07
lfemur -1.7121087916516984 30.412721845613245 -2.0994411355203053
ltibia 24.226605853954357 -10.781538982229753 7.467944423384352
lfoot -11.890872694013837 2.2264228899273046 3.8325608697194324
ltoes 9.095955016776387 -3.2099746127207838 -3.5358397363709186
rhipjoint -1.4590168159163821e-06 -1.2806604693773908e-06 -1.1362305144035093e-07
rfemur -14.760272730376627 -23.73255436562524 8.269777042318937
rtibia 55.06033031472344 27.094986484583526 -9.620066167642731
rfoot -8.21480170346315 1.2247877076976883 -2.768575131712591
rtoes 3.251443679379693 1.2202188447514786 1.213630807131884
lowerback 6.981218739826896 3.2884697079835092 -0.26291695300096024
upperback 0.7907664851795485 -1.3405776635410929 -0.5684545532270645
thorax -3.060723880298604 -3.2917812825139077 -0.24040955869506417
lowerneck -16.33880799474203 8.677216609330415 -3.4572133734100823
upperneck 22.715663849162695 -4.793237221765481 -3.823435310101472
head 10.094550871547053 -2.6274666251113006 -2.0070858788843315
lclavicle -1.1905593500282093e-07 5.336085289072462e-08 1.7916324053945998e-07
lhumerus -81.16733847360108 -28.110085783936235 -19.19941416254843
lradius 1.6524892447455594e-07 -1.8191024236229634e-06 23.889710188238062
lwrist -9.099679916969407e-07 -12.035694902532908 1.2153387971071171e-06
lhand -23.347884941759293 -6.303150002426587 -14.27012554893182
lfingers -9.414104972780149e-07 5.958838404591767e-07 7.125023250159637
lthumb -44.89924571669764 -33.341073244702415 25.41643163755975
rclavicle -2.343282567121354e-08 -1.5207843073856516e-06 -8.563986979746117e-08
rhumerus -76.33492499430369 28.297895495544076 25.962544535289997
rradius 6.663750081976391e-07 1.396607412179081e-06 -28.794397314237933
rwrist -3.4924912712914816e-07 7.1119344732757765 3.154318667562686e-07
rhand 16.024568066502667 -3.1787992814713184 10.927740035187522
rfingers -4.6239122781278693e-07 1.3831930793101032e-07 -7.125021115725521
rthumb -4.4465556025158515 15.291482155337906 -12.179654799669267
95
root -14.693901062011719 17.262300491333008 17.704200744628906 90.00000933466734 -0.0 -0.0
lhipjoint -5.528973971617621e-07 -1.7075472925031877e-06 5.635377011264426e-07
lfemur -0.3511310606070699 30.520532966567313 -1.618080885721012
ltibia 25.32671027262246 -11.345609301061609 7.700206713657928
lfoot -14.029239291057456 2.5559500621896243 4.409484323908783
ltoes 6.725956214410125 -2.4353368188534272 -2.5736460151120695
rhipjoint -1.4590168159163821e-06 -1.2806604693773908e-06 -1.1362305144035093e-07
rfemur -19.260228459370932 -23.95087794735011 10.519999939852562
rtibia 51.77346570119488 25.41105798623024 -9.838498178620677
rfoot -11.105891859308965 -0.41612679390336743 -3.612697507223545
rtoes 4.143408755262237 1.5410407274732054 1.5567679850891
lowerback 7.000418401583802 4.068569945639584 -0.572103955317114
upperback 0.629042013063927 -1.626632816170397 -1.0324441378631344
thorax -3.195164841609492 -4.077905106687698 -0.45331997537886365
lowerneck -15.82078424997346 8.889104445309844 -3.1767892848646304
upperneck 22.46634145388972 -4.6531175984899615 -3.3815566486343203
head 9.892528390050064 -2.6728564337972087 -1.8429192939753132
lclavicle -1.1905593500282093e-07 5.336085289072462e-08 1.7916324053945998e-07
lhumerus -82.21952911524154 -27.635607910221083 -15.99835380046816
lradius 3.090389772909644e-07 -1.0502048051565305e-06 24.719914559211237
lwrist -7.929295843063219e-07 -10.604889799725713 1.0666411993060852e-06
lhand -23.308812844612234 -6.694149304105845 -15.139271389684172
lfingers -9.414104972780149e-07 5.958838404591767e-07 7.125023250159637
lthumb -44.96087792867325 -33.510420954983715 24.54702539584529
rclavicle -2.343282567121354e-08 -1.5207843073856516e-06 -8.563986979746117e-08
rhumerus -77.01519134506945 31.427022012833064 20.954388581100893
rradius -7.962235702899451e-07 2.882243893224191e-06 -31.222594450974583
rwrist -1.0479314464479701e-07 2.0735222751673996 9.968904138085926e-08
rhand 15.362879830279343 -3.093040493469696 11.110826670984299
rfingers -4.6239122781278693e-07 1.3831930793101032e-07 -7.125021115725521
rthumb -5.078976051258849 15.592756676985292 -12.222583392376444
96
root -15.099801063537598 17.22909927368164 18.085302352905273 90.00000933466734 -0.0 -0.0
lhipjoint -5.528973971617621e-07 -1.7075472925031877e-06 5.635377011264426e-07
lfemur 2.2900256114784634 30.00847026939687 -0.567706700873801
ltibia 24.926420206124693 -11.139843022125806 7.6169125567296225
lfoot -14.61822357866058 4.048421314474869 4.573027227169216
ltoes 7.912330191163721 -2.8286711914551828 -3.051950075422899
rhipjoint -1.4590168159163821e-06 -1.2806604693773908e-06 -1.1362305144035093e-07
rfemur -21.937631878164666 -23.9234803510419 11.671024272556759
rtibia 45.80998655572173 22.271450543659867 -9.95900149859992
rfoot -12.291992628495759 -0.8013219022115685 -3.9441507928318082
rtoes -0.09523408798964147 -0.03692037745014567 -0.03463530564680617
lowerback 7.2161836505776815 4.169475318455944 -0.9743643713078713
upperback 0.6567072140493877 -1.7041652816469737 -1.5824353023814792
thorax -3.240737357855698 -4.274278594854266 -0.7246222929269104
lowerneck -16.18881704056855 8.862400966976033 -3.3042124402467423
upperneck 22.625875889880998 -4.528478172081454 -3.5048289699917685
head 10.022885111680695 -2.606907969152974 -1.9094577162091082
lclavicle -1.1905593500282093e-07 5.336085289072462e-08 1.7916324053945998e-07
lhumerus -82.60566019958988 -26.496789979337347 -14.156448149254357
lradius -1.1446130570997873e-07 -2.840079610589716e-06 25.531014891075884
lwrist -8.285678267343079e-07 -11.044400519984986 1.112142977912226e-06
lhand -23.392323860046687 -6.782528963758049 -15.270511767038675
lfingers -9.414104972780149e-07 5.958838404591767e-07 7.125023250159637
lthumb -45.0748874462991 -33.570895449895005 24.462609380345807
rclavicle -2.343282567121354e-08 -1.5207843073856516e-06 -8.563986979746117e-08
rhumerus -75.42621613655768 29.801440405464614 26.236141422873196
rradius -2.30780666020431e-08 2.1431464945679493e-06 -29.485994948836748
rwrist -3.4780388308189113e-07 7.081378768250079 3.1423147453060937e-07
rhand 17.882891784933886 -3.2045202797817054 9.828786503394564
rfingers -4.6239122781278693e-07 1.3831930793101032e-07 -7.125021115725521
rthumb -2.4815624719390157 14.721482378532833 -12.514672163363809
97
root -15.519600868225098 17.234699249267578 18.4955997467041 90.00000933466734 -0.0 -0.0
lhipjoint -5.528973971617621e-07 -1.7075472925031877e-06 5.635377011264426e-07
lfemur 5.890667621373525 29.986958588605916 0.2129591351424887
ltibia 23.087728158915382 -10.20248237458524 7.216470518522822
lfoot -15.998446008021954 3.7918636144367346 4.9136193058869555
ltoes 6.023095597869963 -2.197085306451396 -2.2935367555986734
rhipjoint -1.4590168159163821e-06 -1.2806604693773908e-06 -1.1362305144035093e-07
rfemur -23.255851557787956 -22.583895839694808 12.816740694502206
rtibia 37.828261642590675 17.97827196159853 -9.562143602160084
rfoot -12.32871599434198 0.24043306415076252 -3.9636164050795215
rtoes -3.0006058358846213 -1.1946420274656022 -1.0650998058934942
lowerback 7.064095828329008 4.915871560765767 -1.2809881050141398
upperback 0.5520187168456338 -1.6241391567931076 -2.046641638801991
thorax -3.2038588186492722 -4.655538046777085 -0.9440145324526255
lowerneck -16.118594158164356 8.837607380288887 -3.433917946028696
upperneck 22.480357002066587 -4.416758048488024 -3.6679008036428806
head 9.964257329166244 -2.540345000926849 -1.9939849357260124
lclavicle -1.1905593500282093e-07 5.336085289072462e-08 1.7916324053945998e-07
lhumerus -82.86623191642586 -25.806877693916235 -12.47730163709373
lradius 8.410156017578078e-07 -5.162874316674955e-07 26.879118355865273
lwrist -7.680038571565043e-07 -10.295497598249767 1.0346983543069607e-06
lhand -22.68674482821686 -6.679094713401491 -15.54787721149643
lfingers -9.414104972780149e-07 5.958838404591767e-07 7.125023250159637
lthumb -44.28454576686942 -33.35302607574994 23.823662258964042
rclavicle -2.343282567121354e-08 -1.5207843073856516e-06 -8.563986979746117e-08
rhumerus -75.7287388752759 30.9372632983973 25.059772819480024
rradius -7.287872617119348e-07 2.8837791088022773e-06 -30.256395890984578
rwrist -1.5627170710837536e-07 3.111793418166201 1.471511230593731e-07
rhand 12.387465866487844 -3.108417597168922 13.868372968178022
rfingers -4.6239122781278693e-07 1.3831930793101032e-07 -7.125021115725521
rthumb -8.47032761804979 16.215833853830535 -10.908415722478264
